<svg id="ad97e2e6-c06f-4161-a008-15821dcd6927" data-name="Layer 1" xmlns="http://www.w3.org/2000/svg" width="1070.06687" height="619.35056" viewBox="0 0 1070.06687 619.35056"><title>drag</title><path d="M614.78618,666.32472c-2.77442,0-5.57715-.04394-8.32813-.12988l.0625-1.99805c3.9502.12305,7.98145.15723,11.9502.10254l.02734,2Q616.64506,666.32423,614.78618,666.32472Zm15.74511-.46387-.11718-1.99609c3.95605-.2334,7.96289-.56152,11.90918-.97461l.209,1.98828C638.55571,665.29542,634.5186,665.62648,630.53129,665.86085Zm-36.0957-.31152c-3.98926-.30566-8.02051-.70605-11.98242-1.19238l.24414-1.98438c3.93164.48145,7.93164.87989,11.89062,1.18262Zm60.03906-2.19922-.2998-1.97656c3.93066-.59668,7.8916-1.28906,11.76953-2.05957l.38965,1.96094C662.42582,662.05128,658.43559,662.74953,654.47465,663.35011Zm-83.93506-.73144c-3.94091-.668-7.91894-1.43555-11.82324-2.28321l.42432-1.95508c3.87451.8418,7.82178,1.60352,11.73291,2.26563Zm107.54834-3.96192-.48046-1.9414c3.85839-.95411,7.73828-2.00879,11.53222-3.13379l.56836,1.918C685.88481,656.63331,681.97563,657.69581,678.08793,658.65675Zm-131.07617-1.14648c-3.86572-1.02832-7.75586-2.15918-11.5625-3.36328l.60254-1.90625c3.77783,1.19433,7.63818,2.3164,11.47363,3.33593ZM701.17,651.8091l-.65625-1.88868c3.74414-1.30175,7.50976-2.709,11.19433-4.18359l.74219,1.85742C708.73832,649.0796,704.9434,650.49757,701.17,651.8091Zm-177.14551-1.56641c-3.7544-1.37988-7.53223-2.86914-11.22754-4.42578l.77637-1.84375c3.667,1.54492,7.41552,3.02246,11.1416,4.39258Zm199.47461-7.36816-.82813-1.82032c3.59571-1.63379,7.21-3.37793,10.74219-5.18359l.91016,1.78125C730.76372,639.47121,727.12211,641.228,723.49907,642.87453Zm-221.71045-1.99415c-3.60889-1.71972-7.23145-3.54882-10.76563-5.4375l.94239-1.76367c3.50781,1.874,7.10205,3.68946,10.68359,5.39649Zm243.10888-8.94433-.99023-1.73633c3.44824-1.96777,6.89063-4.03613,10.22949-6.14844l1.06836,1.68946C751.84086,627.86964,748.37309,629.9546,744.8975,631.93605Zm-264.376-2.418c-3.43262-2.042-6.87012-4.19531-10.21631-6.39941l1.10059-1.66993c3.32031,2.1875,6.73144,4.32422,10.13818,6.35059Zm284.69922-10.43945L764.07622,617.44c3.24707-2.26856,6.4873-4.64454,9.63085-7.06055l1.21875,1.58594C771.75883,614.39992,768.49321,616.79347,765.22075,619.07863Zm-304.82569-2.81641c-3.228-2.34473-6.45263-4.80078-9.585-7.30176l1.24805-1.5625c3.1084,2.48145,6.30859,4.91895,9.51172,7.24512Zm323.90284-11.8457-1.28907-1.5293c3.02637-2.55371,6.03809-5.21484,8.95313-7.91016l1.35742,1.46875C790.38286,599.16163,787.3477,601.84328,784.2979,604.41652Zm-342.728-3.18555c-3.00635-2.63281-5.99317-5.37109-8.877-8.13965l1.38477-1.44336c2.8623,2.74805,5.82617,5.46582,8.80957,8.0791Zm360.40088-13.16113-1.42383-1.4043c2.79-2.82715,5.5498-5.75293,8.20117-8.69531l1.48633,1.33789C807.56254,582.27394,804.78227,585.22121,801.97075,588.06984ZM424.1978,584.55812c-2.7583-2.90039-5.48242-5.89844-8.09668-8.91016l1.51074-1.31054c2.59424,2.98925,5.29736,5.96386,8.03516,8.84179Zm393.89306-14.37988-1.54492-1.26953c2.52051-3.06739,5.002-6.23243,7.37793-9.40918l1.60156,1.19726C823.13188,563.898,820.6309,567.08839,818.09086,570.17824ZM408.42,566.38136c-2.47706-3.12988-4.916-6.36133-7.24952-9.60449l1.623-1.168c2.31592,3.21777,4.73633,6.42481,7.19482,9.53223Zm424.0996-15.49707-1.65429-1.123c2.23047-3.28418,4.415-6.66406,6.49219-10.04785l1.70507,1.04688C836.96782,544.16945,834.76665,547.5757,832.51957,550.88429ZM394.3687,546.855c-2.1792-3.34082-4.312-6.77832-6.33985-10.21972l1.72266-1.01563c2.01269,3.415,4.12939,6.82715,6.292,10.1416Zm450.76611-16.51074-1.75-.96679c1.91992-3.47461,3.78516-7.043,5.5459-10.60645l1.793.88672C848.95024,523.24757,847.06938,526.84328,845.13481,530.34425Zm-462.9707-4.20508c-1.86524-3.52539-3.67383-7.14257-5.37549-10.75l1.80859-.85351c1.689,3.58008,3.4834,7.16992,5.33447,10.668Zm473.65136-17.416-1.832-.80274c1.59375-3.63964,3.124-7.36718,4.54883-11.07812l1.86719.7168C858.96391,501.29933,857.42094,505.05519,855.81547,508.72316Zm-483.90234-4.31543c-1.5332-3.67969-3.00147-7.44434-4.36377-11.19043l1.87988-.68359c1.35157,3.71777,2.8086,7.45312,4.32959,11.10449Zm492.55078-18.21582-1.89844-.62891c1.24805-3.76074,2.42578-7.60449,3.5-11.42578l1.92578.541C866.90825,478.52882,865.72075,482.40285,864.46391,486.19191ZM363.69682,481.8091c-1.18994-3.81153-2.3081-7.70508-3.32324-11.57422l1.93457-.50782c1.00732,3.83985,2.11719,7.70411,3.29785,11.48633Zm507.28565-18.79493-1.94825-.45312c.89551-3.85449,1.71387-7.791,2.4336-11.69824l1.96679.36132C872.71,455.16261,871.88481,459.12843,870.98247,463.01417ZM357.58842,458.52c-.834-3.90625-1.58886-7.88574-2.24316-11.83007l1.97265-.32813c.64991,3.915,1.39893,7.86426,2.22657,11.74023Zm517.75244-19.18359-1.98242-.27148c.53809-3.917.99219-7.91114,1.35059-11.87208l1.99219.17969C876.33989,431.36476,875.88188,435.38917,875.34086,439.33644ZM353.647,434.77c-.47168-3.959-.85889-7.99121-1.15137-11.98437l1.99512-.14649c.28955,3.96387.67431,7.96485,1.14257,11.89454Zm523.86865-19.40918-1.99805-.08984c.17774-3.96289.26856-7.98242.26856-11.94629h2C877.78618,407.31886,877.69536,411.36867,877.51567,415.36085Zm-525.626-4.60156c-.06836-2.45215-.103-4.9541-.10351-7.43457q0-2.30859.03955-4.6084l2,.03516q-.03956,2.28222-.03955,4.57324c.00048,2.46191.03515,4.94531.10254,7.37988Zm523.88184-10.22461c-.041-3.96533-.17383-7.98437-.39356-11.94629l1.9961-.11133c.22168,3.99219.35547,8.04151.39746,12.03614ZM354.30034,386.81154l-1.9961-.125c.24951-3.9961.59424-8.03223,1.02344-11.99658l1.98828.21533C354.88969,378.83986,354.54838,382.84523,354.30034,386.81154Zm520.14209-10.13477c-.39942-3.94287-.89649-7.93213-1.47657-11.85791l1.97852-.292c.584,3.95557,1.085,7.9751,1.48828,11.94775ZM356.87309,363.05861l-1.97656-.30567c.61279-3.95654,1.3247-7.94433,2.11621-11.854l1.96.39648C358.18754,355.17531,357.481,359.13283,356.87309,363.05861ZM870.94731,353.043c-.7627-3.90136-1.62305-7.82861-2.55859-11.67236l1.94335-.47266c.94239,3.873,1.80958,7.83057,2.57813,11.76123ZM361.6104,339.64162l-1.94-.48633c.9712-3.87354,2.04688-7.7793,3.19727-11.60938l1.915.5752C363.64165,331.92189,362.57426,335.79787,361.6104,339.64162ZM865.295,329.82814c-1.11524-3.80811-2.334-7.63867-3.62207-11.38672l1.89062-.65039c1.29883,3.77685,2.52734,7.63769,3.65137,11.47461ZM368.49516,316.728l-1.88672-.66308c1.3291-3.78077,2.76416-7.57959,4.26514-11.291l1.85449.75C371.23832,309.20656,369.814,312.97658,368.49516,316.728Zm489.0332-9.49463c-1.459-3.68066-3.02148-7.37451-4.64453-10.97949l1.82422-.82129c1.63574,3.63281,3.21,7.355,4.67969,11.06348ZM377.47172,294.53078l-1.81738-.835c1.67041-3.63769,3.44824-7.28564,5.28418-10.84228l1.77734.917C380.8936,287.30031,379.12944,290.92042,377.47172,294.53078Zm470.26856-9.03565c-1.79-3.53076-3.68653-7.06885-5.63672-10.51465l1.74023-.98535c1.96582,3.47266,3.876,7.0376,5.67969,10.5957ZM388.44877,273.26564l-1.73339-.99805c1.99511-3.46435,4.09912-6.93213,6.2539-10.30615l1.68555,1.07617C392.51665,266.38624,390.42827,269.82765,388.44877,273.26564Zm447.54151-8.53516c-2.11328-3.36426-4.32617-6.71582-6.57715-9.96191l1.64258-1.13965c2.26855,3.271,4.499,6.64795,6.62793,10.03809ZM401.32182,253.107l-1.63476-1.15235c2.30566-3.27,4.7163-6.52929,7.1665-9.6875l1.58008,1.22559C406.00248,246.62746,403.60942,249.86183,401.32182,253.107Zm421.064-7.99219c-2.41016-3.15674-4.91993-6.29492-7.46192-9.32715l1.5332-1.28467c2.56055,3.05567,5.08985,6.21729,7.51856,9.398ZM415.97514,234.21583l-1.52246-1.29687c2.5874-3.03906,5.28418-6.064,8.01514-8.99072l1.46191,1.36425C421.21977,228.19728,418.5435,231.19972,415.97514,234.21583Zm391.06983-7.4082c-2.68653-2.92432-5.47364-5.82275-8.28223-8.61377l1.41016-1.41894c2.83007,2.813,5.63769,5.73291,8.34472,8.6792Zm-374.76514-10.064-1.39844-1.42969c2.85986-2.79785,5.81934-5.564,8.79541-8.22119l1.332,1.49218C438.05522,211.22169,435.11821,213.96681,432.27983,216.74367Zm357.81787-6.77979c-2.94434-2.67041-5.98438-5.3042-9.03516-7.82812l1.27539-1.541c3.07325,2.543,6.13672,5.19678,9.10352,7.8877Zm-339.99951-9.13183-1.2627-1.55079c3.09326-2.519,6.29-5.00341,9.502-7.38427l1.1914,1.60644C456.34086,195.86671,453.168,198.33205,450.09819,200.83205Zm321.58154-6.10694c-3.17676-2.39209-6.44531-4.73926-9.71484-6.97607l1.1289-1.65039c3.29493,2.25341,6.58789,4.61816,9.78907,7.02881Zm-302.39941-8.11035-1.11621-1.65918c3.31054-2.22754,6.71875-4.40869,10.13037-6.48437l1.03906,1.709C475.94829,182.23976,472.566,184.4048,469.28032,186.61476Zm282.65918-5.39111c-3.37989-2.0918-6.85059-4.13086-10.31543-6.06153l.97265-1.74707c3.49219,1.94532,6.98926,4.00049,10.39551,6.10742ZM489.668,174.21339l-.96-1.75488c3.50244-1.9165,7.09375-3.77588,10.67383-5.52734l.87891,1.79687C496.70805,170.46583,493.14409,172.31105,489.668,174.21339Zm241.37012-4.63379c-3.55859-1.773-7.2041-3.48584-10.835-5.09082l.80859-1.8291c3.65918,1.61719,7.333,3.34326,10.91895,5.12988Zm-219.94824-5.84423-.79492-1.835c3.66015-1.58642,7.40429-3.10791,11.12793-4.52246l.71,1.87012C518.43754,160.65138,514.72221,162.16115,511.08989,163.73537Zm198.05176-3.83448c-3.70313-1.436-7.49317-2.80615-11.26563-4.07177l.63672-1.89649c3.80078,1.27588,7.62012,2.65625,11.35156,4.104Zm-175.74317-4.63672-.623-1.90039c3.80079-1.24609,7.67872-2.41943,11.52539-3.48632l.53467,1.92675C541.01811,152.8633,537.17,154.02736,533.39848,155.26417ZM686.462,152.29054c-3.81446-1.0874-7.70508-2.1001-11.56348-3.00976l.459-1.94629c3.88867.9165,7.80859,1.937,11.65332,3.03222ZM556.42045,148.875l-.44531-1.9497c3.89649-.89014,7.86572-1.70118,11.79688-2.41016l.35546,1.96777C564.22563,147.187,560.28715,147.99171,556.42045,148.875Zm106.7876-2.06689c-3.89453-.731-7.86133-1.38135-11.791-1.93311l.27734-1.98046c3.96.55615,7.958,1.21142,11.88281,1.94775Zm-83.27539-2.17627-.26465-1.98242c3.959-.52832,7.98535-.97266,11.9668-1.31934l.17383,1.99219C587.85747,143.667,583.86235,144.10744,579.93266,144.63185Zm59.61621-1.14746c-3.93945-.37109-7.94922-.65723-11.91894-.84912l.09765-1.998c3.999.19385,8.03907.48193,12.00879.856Zm-35.81445-.9292-.084-1.99805c3.67579-.15332,7.42188-.23144,11.13575-.23242l.90527.00147-.00586,2-.89941-.00147C611.10063,142.3257,607.38188,142.40333,603.73442,142.55519Z" transform="translate(-64.96656 -140.32472)" fill="#3f3d56"/><path d="M870.96656,621.59618a12,12,0,1,1,12-12A12.01375,12.01375,0,0,1,870.96656,621.59618Zm0-22a10,10,0,1,0,10,10A10.01114,10.01114,0,0,0,870.96656,599.59618Z" transform="translate(-64.96656 -140.32472)" fill="#2f2e41"/><path d="M551.76921,313.73417v65.68a2.29614,2.29614,0,0,1-2.29,2.29h-1.62988v342.15a35.702,35.702,0,0,1-35.70008,35.7H298.3593a35.69346,35.69346,0,0,1-35.69007-35.7v-330.15h-1.18005a1.61761,1.61761,0,0,1-1.62-1.61v-37.38a1.61971,1.61971,0,0,1,1.62-1.62h1.18005v-14.08h-1.19006a1.69647,1.69647,0,0,1-1.68994-1.7v-36.87a1.69432,1.69432,0,0,1,1.68994-1.69h1.19006v-19.22h-1.21008a1.498,1.498,0,0,1-1.5-1.5v-20.12a1.5066,1.5066,0,0,1,1.5-1.51h1.21008v-40.74a35.69136,35.69136,0,0,1,35.69007-35.69H512.14921a35.69991,35.69991,0,0,1,35.70008,35.69v95.78h1.62988A2.29609,2.29609,0,0,1,551.76921,313.73417Z" transform="translate(-64.96656 -140.32472)" fill="#3f3d56"/><rect x="313.30627" y="57.95624" width="39.82343" height="8.08642" rx="2.54189" fill="#e6e8ec"/><circle cx="363.7377" cy="61.99945" r="4.58665" fill="#e6e8ec"/><path d="M530.75422,222.724v504.09a22.65047,22.65047,0,0,1-22.65,22.64h-204.65a22.61062,22.61062,0,0,1-22.65-22.64V222.724a22.64906,22.64906,0,0,1,22.65-22.65h30.63v3.93a18.65017,18.65017,0,0,0,18.65,18.65h104.08a18.65011,18.65011,0,0,0,18.65-18.65v-3.93h32.64A22.64266,22.64266,0,0,1,530.75422,222.724Z" transform="translate(-64.96656 -140.32472)" fill="#a0d468"/><rect x="225.82764" y="225" width="232" height="113" opacity="0.2"/><rect x="589.82764" y="96" width="232" height="113" fill="#f2f2f2"/><rect x="225.82764" y="396.27927" width="232" height="113" fill="#3f3d56"/><circle cx="433.82764" cy="121.27927" r="20" fill="#fff"/><polygon points="442.828 120.636 434.47 120.636 434.47 112.279 433.185 112.279 433.185 120.636 424.828 120.636 424.828 121.922 433.185 121.922 433.185 130.279 434.47 130.279 434.47 121.922 442.828 121.922 442.828 120.636" fill="#3f3d56"/><rect x="563.82764" y="81" width="232" height="113" fill="#3f3d56"/><path d="M732.36068,297.19492c6.07316,22.45,26.87512,36.35394,26.87512,36.35394s10.95541-22.49485,4.88225-44.94491S737.24293,252.25,737.24293,252.25,726.28752,274.74486,732.36068,297.19492Z" transform="translate(-64.96656 -140.32472)" fill="#fff"/><path d="M741.28477,292.37016c16.66484,16.22255,18.70033,41.1604,18.70033,41.1604s-24.98356-1.36412-41.64841-17.58667-18.70034-41.1604-18.70034-41.1604S724.61992,276.1476,741.28477,292.37016Z" transform="translate(-64.96656 -140.32472)" fill="#a0d468"/><path d="M384.20283,614.19492c6.07317,22.45,26.87512,36.35394,26.87512,36.35394S422.03336,628.054,415.9602,605.604,389.08508,569.25,389.08508,569.25,378.12967,591.74486,384.20283,614.19492Z" transform="translate(-64.96656 -140.32472)" fill="#fff"/><path d="M393.12692,609.37016c16.66484,16.22255,18.70034,41.1604,18.70034,41.1604s-24.98357-1.36412-41.64842-17.58667-18.70033-41.1604-18.70033-41.1604S376.46207,593.1476,393.12692,609.37016Z" transform="translate(-64.96656 -140.32472)" fill="#a0d468"/><path d="M439.45168,614.19492c-6.07317,22.45-26.87512,36.35394-26.87512,36.35394S401.62115,628.054,407.69431,605.604,434.56943,569.25,434.56943,569.25,445.52484,591.74486,439.45168,614.19492Z" transform="translate(-64.96656 -140.32472)" fill="#fff"/><path d="M430.52759,609.37016c-16.66484,16.22255-18.70033,41.1604-18.70033,41.1604s24.98356-1.36412,41.64841-17.58667,18.70033-41.1604,18.70033-41.1604S447.19244,593.1476,430.52759,609.37016Z" transform="translate(-64.96656 -140.32472)" fill="#a0d468"/><path d="M680.7942,476.886H661.05305V457.14489H680.7942Zm-18.2226-1.51855h16.70405v-16.704H662.5716Z" transform="translate(-64.96656 -140.32472)" fill="#3f3d56"/><path d="M162.43807,598.96612,148.973,584.52991l14.43621-13.46509L176.87428,585.501Zm-11.31884-14.36151,11.39354,12.21526L174.728,585.42633l-11.39354-12.21526Z" transform="translate(-64.96656 -140.32472)" fill="#2f2e41"/><circle cx="108.13774" cy="137.95636" r="10.07861" fill="#3f3d56"/><path d="M173.1043,307.39707a29.116,29.116,0,1,1,29.116-29.116A29.14864,29.14864,0,0,1,173.1043,307.39707Zm0-55.99228a26.87629,26.87629,0,1,0,26.87629,26.87629A26.90708,26.90708,0,0,0,173.1043,251.40479Z" transform="translate(-64.96656 -140.32472)" fill="#2f2e41"/><rect y="617.31101" width="1039.82764" height="2" fill="#3f3d56"/><rect x="275.82764" y="207" width="232" height="113" fill="#3f3d56"/><rect x="390.9751" y="245.74411" width="2" height="74.41113" fill="#fff"/><circle cx="391.97533" cy="246.74374" r="10.52282" fill="#a0d468"/><path d="M456.94189,431.92973S455.43863,399.5978,424.6218,403.356" transform="translate(-64.96656 -140.32472)" fill="#fff"/><path d="M779,654.72l-128.69137,40.261L490.221,593.9618l-.0072-.0072-.52482-.32353-.08635-.05748-1.27255-.79807L473.0884,583.1848c.02879-.25881.06477-.51046.115-.75488a6.90454,6.90454,0,0,1,1.56743-3.19932,7.69534,7.69534,0,0,1,.90579-.90588h.0072c.14384-.12221.29479-.24446.45294-.35947q.23721-.18331.496-.34508c2.94775-1.9771,7.39079-2.8183,12.02076-3.06992a57.2151,57.2151,0,0,1,28.8514,6.25484c17.99524,9.10184,56.67441,27.01082,62.70646,16.03969,7.90841-14.37892-81.95986-174.70392-81.95986-174.70392-7.398-19.01613-1.9843-25.22784,1.40911-27.18335.10075-.05753.20132-.11506.29488-.16539a8.36647,8.36647,0,0,1,1.11422-.47448,5.15039,5.15039,0,0,1,.61118-.17974,1.39113,1.39113,0,0,1,.16534-.03594l11.92018,15.84556.17974.23726.63978.85555.19413.25881L587.04137,507.336c110.71771-59.67253,148.82186,99.93352,148.82186,99.93352Z" transform="translate(-64.96656 -140.32472)" fill="#fbbebe"/><path d="M514.78008,411.29914a3.12548,3.12548,0,0,1-2.89737,1.76143,4.59211,4.59211,0,0,1-1.179-.15819c-2.67446-.719-5.77316-3.65222-8.08815-7.65675-2.25759-3.91107-3.18488-7.84373-2.66006-10.45351a8.36647,8.36647,0,0,1,1.11422-.47448,5.15039,5.15039,0,0,1,.61118-.17974c-.92747,1.81891-.37387,5.95285,2.18562,10.38878,2.09207,3.63067,4.92468,6.377,7.20386,6.98094a1.95725,1.95725,0,0,0,2.696-1.5601l.17974.23726.63978.85555Z" transform="translate(-64.96656 -140.32472)" fill="#3f3d56"/><path d="M489.68893,593.63107l-.08635-.05748-1.27255-.79807c.00719-2.049-1.54567-5.40644-4.97505-8.7783-2.89738-2.82546-6.262-4.68035-8.58418-4.76662a7.69534,7.69534,0,0,1,.90579-.90588h.0072c.14384-.12221.29479-.24446.45294-.35947a18.745,18.745,0,0,1,8.2247,5.00388C488.1287,586.67168,490.19936,590.89189,489.68893,593.63107Z" transform="translate(-64.96656 -140.32472)" fill="#3f3d56"/><path d="M1012.70642,593.51385c28.25166,85.02507,18.32965,164.85824,18.32965,164.85824s-55.727-58.01969-83.97864-143.04476-18.32965-164.85824-18.32965-164.85824S984.45476,508.48879,1012.70642,593.51385Z" transform="translate(-64.96656 -140.32472)" fill="#a0d468"/><path d="M1049.36573,593.51385c-28.25166,85.02507-18.32966,164.85824-18.32966,164.85824s55.727-58.01969,83.97865-143.04476,18.32965-164.85824,18.32965-164.85824S1077.61739,508.48879,1049.36573,593.51385Z" transform="translate(-64.96656 -140.32472)" fill="#a0d468"/><path d="M1060.74444,594.43328c1.8937,89.57585-31.1525,162.92249-31.1525,162.92249s-36.1165-71.88449-38.0102-161.46033,31.1525-162.92249,31.1525-162.92249S1058.85074,504.85744,1060.74444,594.43328Z" transform="translate(-64.96656 -140.32472)" fill="#3f3d56"/><circle cx="961.19652" cy="374.94374" r="8.76906" fill="#a0d468"/><circle cx="944.14557" cy="445.09624" r="4.8717" fill="#a0d468"/><circle cx="884.71081" cy="396.86639" r="4.8717" fill="#3f3d56"/><circle cx="1056.68187" cy="349.61089" r="4.8717" fill="#3f3d56"/><circle cx="910.04366" cy="442.66039" r="4.8717" fill="#3f3d56"/><circle cx="1012.34939" cy="414.40452" r="4.8717" fill="#3f3d56"/><circle cx="912.96668" cy="514.27439" r="4.8717" fill="#3f3d56"/><circle cx="1017.22109" cy="486.5057" r="4.8717" fill="#3f3d56"/><circle cx="969.96559" cy="491.3774" r="4.8717" fill="#a0d468"/></svg>